<?xml version="1.0" standalone="no"?>
<!DOCTYPE svg PUBLIC "-//W3C//DTD SVG 20010904//EN"
 "http://www.w3.org/TR/2001/REC-SVG-20010904/DTD/svg10.dtd">
<svg version="1.0" xmlns="http://www.w3.org/2000/svg"
 width="342.000000pt" height="150.000000pt" viewBox="0 0 342.000000 150.000000"
 preserveAspectRatio="xMidYMid meet">

<g transform="translate(0.000000,150.000000) scale(0.100000,-0.100000)"
fill="#000000" stroke="none">
<path d="M885 1303 c-173 -24 -513 -152 -603 -228 -37 -31 -72 -118 -72 -178
0 -56 22 -87 61 -87 35 0 268 115 276 136 3 8 0 21 -6 28 -15 17 -18 16 104
64 213 85 337 111 364 79 19 -24 -78 -155 -268 -362 -45 -50 -55 -56 -132 -76
-46 -12 -103 -21 -125 -20 -67 2 -124 -62 -124 -137 0 -32 38 -72 69 -72 43
-1 43 -16 2 -75 -33 -46 -41 -67 -41 -101 0 -47 24 -74 67 -74 25 0 41 19 142
166 l70 102 63 10 c139 23 171 25 165 11 -62 -143 -79 -218 -58 -257 32 -60
207 28 184 92 -13 36 -7 70 21 131 l26 58 76 -5 76 -5 83 111 c51 68 78 113
71 117 -6 4 -44 12 -83 19 l-73 12 117 171 c105 153 117 176 121 222 5 56 -12
81 -46 71 -20 -7 -120 -136 -262 -341 -46 -66 -84 -121 -85 -122 -1 -3 -149
-21 -152 -19 -2 1 35 46 80 99 159 186 197 279 164 392 -17 57 -58 75 -162 73
-44 0 -93 -3 -110 -5z"/>
<path d="M3083 839 c-123 -23 -287 -162 -341 -290 -33 -77 -144 -157 -166
-120 -11 18 15 64 79 139 72 83 76 101 45 170 -30 67 -56 60 -176 -46 -54 -49
-105 -96 -113 -105 -31 -38 -28 -13 4 46 50 90 44 143 -16 166 -55 20 -119
-21 -296 -193 -114 -109 -136 -121 -44 -22 91 98 109 142 69 170 -30 22 -76
20 -115 -4 -38 -23 -113 -121 -153 -200 -16 -30 -38 -61 -49 -68 -25 -15 -25
-12 -1 58 24 68 27 172 5 190 -8 7 -15 25 -15 41 0 66 -112 81 -218 29 -73
-37 -177 -143 -215 -220 -47 -95 -31 -226 36 -298 72 -78 170 -67 262 27 27
29 47 41 67 41 16 0 45 7 65 15 19 8 37 15 38 15 1 0 5 -12 8 -27 4 -16 15
-43 27 -61 40 -65 79 -56 145 35 51 69 171 205 186 211 5 2 -14 -40 -41 -92
-53 -102 -61 -146 -34 -184 17 -24 52 -29 87 -11 12 6 70 62 129 123 l108 111
-30 -65 c-38 -83 -40 -147 -7 -178 47 -44 118 -20 235 79 46 38 74 55 76 47 3
-7 9 -29 15 -49 6 -19 27 -51 47 -70 34 -33 38 -34 112 -34 67 0 84 4 127 29
28 16 87 66 133 111 81 82 82 83 82 134 0 28 -2 51 -4 51 -2 0 -35 -26 -75
-58 -146 -119 -241 -139 -265 -56 -6 19 5 27 87 68 116 57 208 137 232 201 40
103 -18 166 -132 144z m-40 -177 c-33 -41 -109 -99 -118 -90 -4 3 9 23 27 44
37 42 108 97 116 89 3 -3 -8 -22 -25 -43z m-1419 -74 c-9 -24 -16 -71 -16
-105 0 -60 -2 -64 -33 -83 -35 -22 -80 -26 -90 -10 -4 6 -4 34 0 61 5 36 16
61 39 87 26 30 102 92 112 92 2 0 -4 -19 -12 -42z"/>
</g>
</svg>
