<?xml version="1.0" standalone="no"?>
<!DOCTYPE svg PUBLIC "-//W3C//DTD SVG 20010904//EN"
 "http://www.w3.org/TR/2001/REC-SVG-20010904/DTD/svg10.dtd">
<svg version="1.0" xmlns="http://www.w3.org/2000/svg"
 width="514.000000pt" height="166.000000pt" viewBox="0 0 514.000000 166.000000"
 preserveAspectRatio="xMidYMid meet">

<g transform="translate(0.000000,166.000000) scale(0.100000,-0.100000)"
fill="#000000" stroke="none">
<path d="M625 1495 c-89 -17 -237 -57 -288 -79 -25 -11 -44 -34 -89 -117 -32
-57 -59 -115 -60 -128 -4 -35 24 -49 64 -32 160 66 407 135 424 118 3 -3 -39
-72 -95 -154 l-100 -149 -57 -17 c-74 -23 -137 -68 -159 -112 -21 -45 -14 -79
24 -114 l28 -25 -60 -124 c-63 -130 -76 -192 -48 -225 19 -24 64 -21 88 6 48
52 103 151 103 185 0 20 11 54 25 79 l26 43 104 0 c297 0 530 120 630 325 110
225 37 447 -168 511 -74 23 -290 28 -392 9z m392 -247 c55 -13 93 -48 93 -86
0 -44 -46 -126 -101 -177 -86 -80 -214 -125 -356 -125 -68 0 -81 3 -77 15 6
16 14 19 96 35 56 11 73 26 62 55 -4 10 -20 15 -45 15 -21 0 -39 2 -39 4 0 2
29 50 65 107 36 57 71 120 77 142 l12 39 85 -7 c47 -4 105 -11 128 -17z"/>
<path d="M1535 1402 c-125 -91 -266 -307 -345 -527 -62 -173 -51 -347 27 -415
63 -56 140 -33 249 72 l62 59 21 -44 c11 -24 34 -56 50 -71 46 -44 85 -32 176
55 l73 70 -5 -59 c-5 -51 -3 -61 19 -87 47 -54 122 -28 238 82 39 36 72 64 74
62 1 -2 9 -20 16 -38 19 -47 68 -101 92 -101 25 0 53 15 103 55 63 50 71 52
48 14 -50 -81 -144 -256 -154 -287 -21 -63 25 -161 67 -145 8 3 61 66 119 141
109 141 285 351 296 351 4 1 12 -20 19 -45 19 -66 67 -114 116 -114 55 0 115
33 182 101 33 34 62 57 65 52 2 -4 10 -25 16 -45 16 -50 72 -98 114 -98 50 1
112 34 176 95 61 58 71 64 71 40 0 -8 18 -33 39 -54 110 -110 215 -98 389 42
45 37 84 67 87 67 2 0 -1 -14 -7 -31 -17 -50 -5 -127 26 -157 54 -55 153 -20
281 100 l72 67 17 -39 c30 -68 111 -121 185 -122 80 0 177 54 299 165 39 37
42 43 42 94 l0 54 -66 -51 c-36 -28 -85 -60 -107 -72 l-42 -21 47 50 c92 100
111 171 79 306 -11 48 -18 93 -15 101 3 8 -4 24 -16 36 -18 18 -30 21 -58 16
-43 -7 -67 -29 -84 -78 -8 -23 -61 -87 -146 -177 -171 -181 -289 -272 -329
-257 -33 13 10 152 80 263 27 42 29 43 82 43 l54 0 49 73 c27 39 57 87 66 104
l17 33 -29 0 c-43 0 -45 9 -12 53 35 47 38 72 11 87 -59 31 -142 -13 -196
-104 -7 -11 -33 -19 -83 -25 -40 -5 -84 -17 -97 -25 -36 -24 -95 -116 -102
-161 l-6 -37 62 7 c33 4 61 4 61 0 0 -3 -20 -32 -44 -63 -62 -81 -172 -182
-236 -216 l-55 -29 47 50 c92 100 111 171 79 306 -11 48 -18 93 -15 101 3 8
-4 24 -16 36 -18 18 -30 21 -57 17 -45 -8 -69 -30 -84 -76 -6 -20 -39 -65 -72
-101 -155 -167 -256 -265 -296 -291 -54 -35 -115 -39 -131 -10 -15 29 -4 48
70 127 67 70 120 159 120 199 0 53 -70 71 -139 36 -64 -33 -181 -183 -196
-251 -9 -42 -127 -150 -164 -150 -34 0 -49 15 -57 58 -10 49 1 73 66 147 85
97 192 261 231 353 36 87 52 219 29 247 -84 101 -389 -303 -471 -623 -17 -67
-23 -77 -80 -130 -34 -31 -71 -63 -82 -71 -18 -13 -18 -12 -7 9 7 12 50 80 96
151 94 142 107 172 93 223 -23 82 -65 73 -153 -33 -36 -43 -96 -106 -134 -138
-65 -58 -182 -143 -196 -143 -22 0 15 51 85 117 137 131 168 201 113 257 -15
14 -37 26 -49 26 -55 0 -207 -159 -276 -288 -44 -82 -106 -135 -153 -130 -51
5 -47 44 13 130 52 73 60 103 42 151 -7 18 -5 26 10 35 47 30 -5 132 -68 132
-139 0 -446 -204 -504 -334 -13 -30 -41 -63 -80 -96 -91 -76 -138 -65 -139 33
0 45 4 52 71 130 142 164 239 340 262 473 21 124 -24 168 -108 106z m-51 -264
c-37 -73 -94 -161 -100 -155 -7 7 46 118 87 182 40 63 49 45 13 -27z m1636 47
c-24 -63 -109 -205 -122 -205 -17 0 69 166 110 213 21 23 23 22 12 -8z m-1225
-362 c-83 -104 -192 -203 -224 -203 -6 0 -11 16 -11 35 0 28 9 45 38 75 37 40
195 140 221 140 8 0 -2 -19 -24 -47z m1898 1 c2 -25 1 -61 -3 -80 -8 -36 -45
-84 -64 -84 -5 0 -27 17 -47 38 l-38 37 67 68 c36 37 69 67 73 67 3 0 9 -20
12 -46z m900 0 c2 -25 1 -61 -3 -80 -8 -36 -45 -84 -64 -84 -5 0 -27 17 -47
38 l-38 37 67 68 c36 37 69 67 73 67 3 0 9 -20 12 -46z"/>
<path d="M3466 1230 c-47 -42 -71 -102 -54 -138 7 -15 26 -33 43 -41 26 -13
33 -12 64 5 78 42 107 142 55 183 -37 29 -67 26 -108 -9z"/>
</g>
</svg>
