<?xml version="1.0" standalone="no"?>
<!DOCTYPE svg PUBLIC "-//W3C//DTD SVG 20010904//EN"
 "http://www.w3.org/TR/2001/REC-SVG-20010904/DTD/svg10.dtd">
<svg version="1.0" xmlns="http://www.w3.org/2000/svg"
 width="408.000000pt" height="148.000000pt" viewBox="0 0 408.000000 148.000000"
 preserveAspectRatio="xMidYMid meet">

<g transform="translate(0.000000,148.000000) scale(0.100000,-0.100000)"
fill="#000000" stroke="none">
<path d="M3785 1280 c-99 -39 -565 -685 -565 -782 0 -36 -196 -148 -258 -148
-41 0 -82 38 -82 76 0 29 62 95 115 124 24 13 28 13 36 -3 25 -44 90 -7 150
86 49 75 53 130 13 168 -51 48 -125 25 -256 -79 -92 -73 -143 -132 -175 -199
-17 -38 -36 -59 -71 -82 -136 -87 -127 -3 19 174 37 45 41 53 36 93 -5 50 -33
84 -68 85 -13 0 -56 -3 -96 -7 -68 -7 -71 -7 -67 11 7 26 -20 47 -51 39 -55
-14 -142 -117 -165 -196 -9 -33 2 -79 22 -91 15 -10 -47 -84 -101 -119 -51
-35 -97 -39 -106 -11 -8 25 2 46 59 130 49 70 50 72 39 114 -10 37 -9 44 8 60
23 22 23 30 4 72 -24 49 -55 61 -122 47 -155 -32 -406 -209 -455 -320 -47
-105 -250 -207 -294 -147 -28 38 -17 52 76 100 166 86 240 165 240 257 0 102
-113 121 -255 42 -76 -43 -190 -160 -221 -228 -36 -78 -37 -197 -2 -265 68
-132 229 -122 381 24 32 30 60 55 62 55 2 0 13 -19 23 -42 24 -55 74 -108 102
-108 34 0 60 18 133 88 l67 66 0 -65 c0 -85 16 -109 74 -109 30 0 56 9 92 31
58 36 248 228 295 296 39 58 46 63 82 63 l29 0 -22 -32 c-90 -135 -103 -263
-33 -318 50 -39 108 -18 210 75 l63 57 10 -27 c5 -14 10 -30 10 -34 0 -18 62
-91 89 -106 71 -36 145 -12 269 89 l81 66 7 -35 c9 -48 40 -85 70 -85 30 0 50
20 158 153 44 53 83 97 87 97 5 0 -4 -24 -18 -53 -18 -34 -28 -73 -31 -114 -4
-56 -2 -64 21 -87 54 -54 120 -24 288 132 58 53 59 55 59 109 l0 55 -27 -22
c-58 -45 -147 -100 -161 -100 -11 0 -13 8 -8 31 7 34 25 64 103 161 29 37 53
76 53 88 0 55 -58 108 -104 94 -42 -13 -113 -70 -228 -183 -65 -63 -118 -109
-118 -104 0 6 30 46 68 90 202 235 462 603 462 654 0 35 -65 65 -105 49z
m-2275 -604 c0 -16 -66 -87 -105 -112 -68 -44 -20 38 54 92 53 39 51 38 51 20z
m524 -58 c-46 -80 -219 -245 -248 -235 -37 12 -1 94 63 141 49 36 170 106 184
106 5 0 5 -6 1 -12z"/>
<path d="M808 1176 c-115 -21 -232 -63 -301 -110 -75 -50 -118 -124 -137 -237
-12 -67 -11 -77 6 -109 25 -45 134 -101 259 -131 162 -38 220 -58 258 -86 20
-15 36 -33 37 -39 0 -16 -86 -60 -155 -79 -39 -10 -121 -18 -236 -22 l-177 -6
5 26 c7 34 -12 42 -75 32 -38 -6 -55 -15 -89 -51 -48 -50 -71 -111 -57 -152
24 -68 149 -98 376 -89 290 10 469 83 538 217 92 179 -32 304 -410 412 -62 17
-114 38 -117 45 -9 23 46 70 112 97 66 26 185 51 300 61 l70 6 -42 -39 c-30
-27 -43 -48 -43 -66 0 -37 24 -34 112 13 40 21 95 47 121 56 62 23 96 67 104
132 12 103 -28 125 -237 129 -90 2 -174 -2 -222 -10z"/>
</g>
</svg>
